<?xml version="1.0" encoding="UTF-8"?>
<svg width="33px" height="22px" viewBox="0 0 33 22" version="1.1" xmlns="http://www.w3.org/2000/svg" xmlns:xlink="http://www.w3.org/1999/xlink">
    <!-- Generator: Sketch 46.2 (44496) - http://www.bohemiancoding.com/sketch -->
    <title>next</title>
    <desc>Created with Sketch.</desc>
    <defs></defs>
    <g id="Page-1" stroke="none" stroke-width="1" fill="none" fill-rule="evenodd">
        <g id="next" fill-rule="nonzero" fill="#000000">
            <path d="M32.135,11.817 L0.5,11.817 C0.224,11.817 0,11.593 0,11.317 C0,11.041 0.224,10.817 0.5,10.817 L32.135,10.817 C32.411,10.817 32.635,11.041 32.635,11.317 C32.635,11.593 32.411,11.817 32.135,11.817 Z" id="Shape"></path>
            <path d="M22.3569144,21.4806977 C22.2289144,21.4806977 22.1009144,21.4316977 22.0029144,21.3346977 C21.8079144,21.1396977 21.8079144,20.8226977 22.0029144,20.6276977 L31.428,11.316 L22.0029144,1.73908531 C21.8079144,1.54408531 21.8079144,1.22708531 22.0029144,1.03208531 C22.1979144,0.83708531 22.5149144,0.83708531 22.7099144,1.03208531 L32.488,10.962 C32.582,11.056 32.634,11.183 32.634,11.316 C32.634,11.449 32.581,11.576 32.488,11.67 L22.7099144,21.3336977 C22.6129144,21.4316977 22.4849144,21.4806977 22.3569144,21.4806977 Z" id="Shape"></path>
        </g>
    </g>
</svg>